<svg xmlns="http://www.w3.org/2000/svg" width="11.232" height="8.023" viewBox="0 0 11.232 8.023"><defs><style>.a{fill:#fff;}</style></defs><g transform="translate(0 -2)"><g transform="translate(0 2)"><path class="a" d="M5.678,8.7,4.289,7.484.316,10.89a.813.813,0,0,0,.554.217h9.616a.807.807,0,0,0,.552-.217L7.068,7.484Z" transform="translate(-0.062 -3.084)"/><path class="a" d="M11.041,2.217A.808.808,0,0,0,10.487,2H.871a.8.8,0,0,0-.553.219L5.679,6.814Z" transform="translate(-0.063 -2)"/><path class="a" d="M0,2.878V9.543L3.877,6.248Z" transform="translate(0 -2.174)"/><path class="a" d="M9.167,6.248l3.877,3.295V2.875Z" transform="translate(-1.813 -2.173)"/></g></g></svg>