<svg id="coin" xmlns="http://www.w3.org/2000/svg" width="20.154" height="20.154" viewBox="0 0 20.154 20.154">
  <g id="Group_2" data-name="Group 2">
    <g id="Group_1" data-name="Group 1">
      <path id="Path_1" data-name="Path 1" d="M17.2,2.951A10.077,10.077,0,0,0,2.951,17.2,10.077,10.077,0,0,0,17.2,2.951ZM10.077,18.973a8.9,8.9,0,1,1,8.9-8.9A8.906,8.906,0,0,1,10.077,18.973Z"/>
    </g>
  </g>
  <g id="Group_4" data-name="Group 4" transform="translate(6.957 3.795)">
    <g id="Group_3" data-name="Group 3">
      <path id="Path_2" data-name="Path 2" d="M180.487,102.093h-1.265a1.307,1.307,0,1,1,0-2.614h2.53a.59.59,0,0,0,0-1.181h-1.307V96.991a.59.59,0,1,0-1.181,0V98.3h-.042a2.488,2.488,0,1,0,0,4.975h1.265a1.307,1.307,0,0,1,0,2.614h-2.53a.59.59,0,0,0,0,1.181h1.307v1.307a.59.59,0,1,0,1.181,0v-1.307h.042a2.488,2.488,0,0,0,0-4.975Z" transform="translate(-176.734 -96.401)"/>
    </g>
  </g>
</svg>
