<svg xmlns="http://www.w3.org/2000/svg" xmlns:xlink="http://www.w3.org/1999/xlink" width="62.816" height="62.816" viewBox="0 0 62.816 62.816"><defs><style>.a{fill:url(#a);}</style><linearGradient id="a" x1="0.5" x2="0.5" y2="1" gradientUnits="objectBoundingBox"><stop offset="0" stop-color="#23b589"/><stop offset="1" stop-color="#039dbc"/></linearGradient></defs><path class="a" d="M170.887,19.782A9.891,9.891,0,1,0,161,9.891,9.9,9.9,0,0,0,170.887,19.782Zm0-17.777A7.886,7.886,0,1,1,163,9.891,7.895,7.895,0,0,1,170.887,2Z" transform="translate(-139.479)"/><path class="a" d="M124.073,165.014a15.127,15.127,0,0,1,15.075,14.105H115.981a1,1,0,1,0,0,2h24.2a1,1,0,0,0,1-1,17.113,17.113,0,0,0-34.225,0,1,1,0,0,0,1,1h4.01a1,1,0,0,0,0-2H109A15.127,15.127,0,0,1,124.073,165.014Z" transform="translate(-92.665 -141.223)"/><path class="a" d="M18.765,336.184l-5.5-.923-2.577-4.945a1,1,0,0,0-1.778,0l-2.577,4.945-5.5.923a1,1,0,0,0-.549,1.691l3.906,3.979-.822,5.515a1,1,0,0,0,1.438,1.045L9.8,345.928l4.991,2.486a1,1,0,0,0,1.438-1.045l-.822-5.515,3.906-3.979a1,1,0,0,0-.549-1.69Zm-5.137,4.621a1,1,0,0,0-.276.85l.612,4.106-3.716-1.851a1,1,0,0,0-.894,0l-3.716,1.851.612-4.106a1,1,0,0,0-.276-.85l-2.909-2.962,4.094-.687a1,1,0,0,0,.723-.525L9.8,332.949l1.919,3.682a1,1,0,0,0,.723.525l4.094.687-2.909,2.963Z" transform="translate(0.001 -285.703)"/><path class="a" d="M180.432,336.184l-5.5-.923-2.577-4.945a1,1,0,0,0-1.778,0L168,335.262l-5.5.923a1,1,0,0,0-.549,1.691l3.906,3.979-.821,5.515a1,1,0,0,0,1.438,1.045l4.991-2.486,4.991,2.486a1,1,0,0,0,1.438-1.045l-.821-5.515,3.906-3.979a1,1,0,0,0-.549-1.69Zm-5.137,4.621a1,1,0,0,0-.276.85l.612,4.106-3.716-1.851a1,1,0,0,0-.894,0l-3.716,1.851.612-4.106a1,1,0,0,0-.276-.85l-2.909-2.962,4.094-.687a1,1,0,0,0,.723-.525l1.919-3.681,1.919,3.682a1,1,0,0,0,.723.525l4.094.687-2.908,2.962Z" transform="translate(-140.059 -285.703)"/><path class="a" d="M342.885,336.863a1,1,0,0,0-.787-.679l-5.5-.923-2.577-4.944a1,1,0,0,0-1.778,0l-2.577,4.944-5.5.923a1,1,0,0,0-.549,1.691l3.906,3.979-.822,5.515a1,1,0,0,0,1.438,1.045l4.991-2.486,4.991,2.486a1,1,0,0,0,1.438-1.045l-.822-5.515,3.906-3.979A1,1,0,0,0,342.885,336.863Zm-5.924,3.942a1,1,0,0,0-.276.85l.612,4.106-3.716-1.851a1,1,0,0,0-.894,0l-3.716,1.851.612-4.106a1,1,0,0,0-.276-.85l-2.909-2.963,4.094-.687a1,1,0,0,0,.723-.525l1.919-3.682,1.919,3.682a1,1,0,0,0,.723.525l4.094.687Z" transform="translate(-280.118 -285.703)"/><path class="a" d="M211.175,87.093a4.545,4.545,0,0,0,3.43-1.567,1,1,0,1,0-1.513-1.315,2.532,2.532,0,0,1-3.833,0,1,1,0,1,0-1.513,1.315A4.545,4.545,0,0,0,211.175,87.093Z" transform="translate(-179.767 -72.658)"/></svg>