<svg xmlns="http://www.w3.org/2000/svg" width="18.695" height="18.695" viewBox="0 0 18.695 18.695"><defs><style>.a{fill:#5382ec;}</style></defs><path class="a" d="M39.874,126.155l.175-.286-.175-.286a10.535,10.535,0,0,0-2.1-2.327,9.491,9.491,0,0,0-12.431,0,10.636,10.636,0,0,0-2.121,2.325l-.179.289.179.289a10.636,10.636,0,0,0,2.121,2.325,9.491,9.491,0,0,0,12.431,0A10.529,10.529,0,0,0,39.874,126.155Zm-2.835,1.509a8.393,8.393,0,0,1-10.974,0,10.335,10.335,0,0,1-1.716-1.794,10.337,10.337,0,0,1,1.716-1.794,8.393,8.393,0,0,1,10.974,0,10.2,10.2,0,0,1,1.7,1.8A10.2,10.2,0,0,1,37.039,127.664Zm0,0" transform="translate(-22.198 -116.522)"/><path class="a" d="M169.158,165.867a3.291,3.291,0,1,0,3.291,3.291A3.295,3.295,0,0,0,169.158,165.867Zm0,5.487a2.2,2.2,0,1,1,2.2-2.2A2.2,2.2,0,0,1,169.158,171.354Zm0,0" transform="translate(-159.811 -159.811)"/><path class="a" d="M1.1,1.1H3.382V0H0V3.341H1.1Zm0,0"/><path class="a" d="M419.375,0V1.1h2.287V3.341h1.1V0Zm0,0" transform="translate(-404.062)"/><path class="a" d="M1.1,420.5H0v3.341H3.382v-1.1H1.1Zm0,0" transform="translate(0 -405.146)"/><path class="a" d="M421.662,422.746h-2.287v1.1h3.382V420.5h-1.1Zm0,0" transform="translate(-404.062 -405.146)"/></svg>