<svg xmlns="http://www.w3.org/2000/svg" width="25.296" height="16.573" viewBox="0 0 25.296 16.573">
  <defs>
    <style>
      .cls-1 {
        fill: #eb232e;
      }

      .cls-2 {
        fill: #222239;
      }

      .cls-3 {
        fill: #f8f8f8;
      }

      .cls-4 {
        fill: #51bc00;
      }
    </style>
  </defs>
  <g id="iraq" transform="translate(0 -88.276)">
    <path id="Path_4" data-name="Path 4" class="cls-1" d="M23.4,88.276H1.894A1.894,1.894,0,0,0,0,90.17V93.8H25.3V90.17A1.894,1.894,0,0,0,23.4,88.276Z"/>
    <path id="Path_5" data-name="Path 5" class="cls-2" d="M0,315.538a1.894,1.894,0,0,0,1.894,1.894H23.4a1.894,1.894,0,0,0,1.894-1.894v-3.63H0Z" transform="translate(0 -212.583)"/>
    <rect id="Rectangle_2" data-name="Rectangle 2" class="cls-3" width="25.296" height="5.524" transform="translate(0 93.8)"/>
    <g id="Group_5" data-name="Group 5" transform="translate(7.159 94.508)">
      <path id="Path_6" data-name="Path 6" class="cls-4" d="M306.4,225.46c-.046-.024-.1-.109-.083-.147s-.01-.036.084-.008a.382.382,0,0,0,.387-.068l.1-.076.112.056a.4.4,0,0,0,.144.044.313.313,0,0,0,.15-.183c0-.06.042-.044.064.02a.3.3,0,0,1-.154.354.315.315,0,0,1-.2-.016c-.1-.04-.12-.04-.175,0a.391.391,0,0,1-.427.024" transform="translate(-298.341 -224.515)"/>
      <path id="Path_7" data-name="Path 7" class="cls-4" d="M314.841,214.889a.893.893,0,0,1-.1-.42c.02-.062.039-.073.092-.056.1.034.118.1.106.319-.017.168-.039.224-.1.157" transform="translate(-306.343 -214.406)"/>
      <path id="Path_8" data-name="Path 8" class="cls-4" d="M149.644,225.992c-.23.131-.572.153-.572.516-.5.019-1.091.041-1.623.03.144-.186,1.057-1.03,1.437-1.365a.212.212,0,0,0,.048-.238l-.01-.02a.185.185,0,0,0-.294-.053c-.378.362-.753.7-.814.757l-.71.717a.292.292,0,0,0-.085.208v.005a.294.294,0,0,0,.294.292h2.143c.121,0-.028-.422.129-.422.109,0,.119.151.114.312a.226.226,0,0,1-.226.219c-.927,0-1.891.01-2.8.011a.135.135,0,0,1-.135-.136v-.163a.173.173,0,0,0-.269-.143l-.013.008a.154.154,0,0,0-.068.179.512.512,0,0,1,.023.152.135.135,0,0,1-.131.136c-.3.009-.626.012-.719-.165a.2.2,0,0,0-.264-.1l-.013.007a.209.209,0,0,0-.09.288,1.071,1.071,0,0,1,.159.744.507.507,0,0,1-.21.22.1.1,0,0,0,.078.19.669.669,0,0,0,.523-.526h4.27a.284.284,0,0,0,.284-.284v-.927C150.058,226.167,149.761,226.178,149.644,225.992Z" transform="translate(-144.895 -224.296)"/>
      <path id="Path_9" data-name="Path 9" class="cls-4" d="M347.5,223.622a1.768,1.768,0,0,0,.2.115.142.142,0,0,1,.061.2.207.207,0,0,0-.027.066v1.838a.3.3,0,0,0,.255-.038.112.112,0,0,1,.172.064c.043.161.114.319.152.462a.141.141,0,0,1-.136.177h-.72a.115.115,0,0,1-.115-.115v-2.683A.105.105,0,0,1,347.5,223.622Z" transform="translate(-337.339 -223.151)"/>
      <path id="Path_10" data-name="Path 10" class="cls-4" d="M295.8,227.552c0,.507.006,1.054.007,1.6a.128.128,0,0,1-.128.128h-.008a.127.127,0,0,1-.127-.127v-1.289a.082.082,0,0,0-.135-.062l-.169.146a.157.157,0,0,0-.055.118c0,.21,0,.82,0,1.087a.127.127,0,0,1-.127.127h-.012a.127.127,0,0,1-.127-.126c0-.177,0-.506,0-.753a.083.083,0,0,0-.138-.061c-.175.153-.215.188-.307.283.007.049.045,0,.067.037v.247c-.638-.12-.685.389-.661.936a.154.154,0,0,0,.153.147h2a.134.134,0,0,0,.134-.134v-2.489a.1.1,0,0,0-.16-.07c-.049.045-.1.09-.146.13A.172.172,0,0,0,295.8,227.552Zm-1.474,1.707c-.039-.112.181-.153.207-.052C294.538,229.33,294.37,229.333,294.322,229.259Z" transform="translate(-286.503 -226.633)"/>
      <path id="Path_11" data-name="Path 11" class="cls-4" d="M166.563,286.38a.139.139,0,0,1,.138.138.137.137,0,0,1-.138.138.139.139,0,0,1-.142-.138.141.141,0,0,1,.142-.138" transform="translate(-165.357 -282.824)"/>
      <path id="Path_12" data-name="Path 12" class="cls-4" d="M256.675,224.639a1.31,1.31,0,0,0,.117.063.135.135,0,0,1,.058.195.219.219,0,0,0-.032.073V226.8a.293.293,0,0,0,.264-.042.1.1,0,0,1,.16.056c.033.125.083.248.122.365a.221.221,0,0,1-.209.29h-.562a.165.165,0,0,1-.165-.165v-2.527A.164.164,0,0,1,256.675,224.639Z" transform="translate(-250.917 -224.111)"/>
    </g>
  </g>
</svg>
