<svg xmlns="http://www.w3.org/2000/svg" width="45.913" height="46.719" viewBox="0 0 45.913 46.719"><defs><style>.a{fill:#f0785a;}.b{fill:#b35a5b;}.c{fill:#b0d3f0;}.d{fill:#ed7161;}.e{fill:#f0c419;}.f{fill:#f3d55b;}.g{fill:#d36259;}.h{fill:#fff;}.i{fill:#cb8252;}.j{fill:#7f6e5d;}.k{fill:#24ae5f;}</style></defs><g transform="translate(-0.5)"><path class="a" d="M2.5,11V48.858H46V11Z" transform="translate(-0.389 -2.14)"/><rect class="b" width="22.554" height="18.526" transform="translate(3.722 23.359)"/><rect class="c" width="19.332" height="15.304" transform="translate(5.333 24.97)"/><path class="d" d="M12.795,8.86H1.823A.23.23,0,0,1,1.6,8.568L4.874,1.46A2.508,2.508,0,0,1,7.153,0h7.253Z" transform="translate(-0.213 0)"/><path class="d" d="M40.777,8.86H29.5V0h9.666Z" transform="translate(-5.641 0)"/><path class="e" d="M21.138,22.277h0A5.638,5.638,0,0,1,15.5,16.638V11H26.777v5.638A5.638,5.638,0,0,1,21.138,22.277Z" transform="translate(-2.918 -2.14)"/><path class="e" d="M49.138,22.277h0A5.638,5.638,0,0,1,43.5,16.638V11H54.691a.086.086,0,0,1,.086.086v5.552A5.638,5.638,0,0,1,49.138,22.277Z" transform="translate(-8.364 -2.14)"/><path class="f" d="M26.777,8.86H15.5L17.111,0h9.666Z" transform="translate(-2.918 0)"/><path class="f" d="M54.1,8.86H43.111L41.5,0h7.253a2.51,2.51,0,0,1,2.28,1.461L54.31,8.586A.216.216,0,0,1,54.1,8.86Z" transform="translate(-7.975 0)"/><path class="g" d="M7.138,22.277h0A5.638,5.638,0,0,1,1.5,16.638V11.227A.227.227,0,0,1,1.727,11h11.05v5.638A5.638,5.638,0,0,1,7.138,22.277Z" transform="translate(-0.195 -2.14)"/><path class="g" d="M35.138,22.277h0A5.638,5.638,0,0,1,29.5,16.638V11H40.777v5.638A5.638,5.638,0,0,1,35.138,22.277Z" transform="translate(-5.641 -2.14)"/><rect class="b" width="12.888" height="23.359" transform="translate(29.498 23.359)"/><rect class="c" width="9.666" height="20.137" transform="translate(31.109 24.97)"/><path class="h" d="M48.305,46.027a.8.8,0,0,1-.805-.805V42.806a.805.805,0,1,1,1.611,0v2.416A.8.8,0,0,1,48.305,46.027Z" transform="translate(-9.142 -8.169)"/><g transform="translate(13.388 25.776)"><path class="h" d="M17.305,36.833a.8.8,0,0,0,.569-.236L21.1,33.375a.805.805,0,1,0-1.139-1.139l-3.222,3.222a.805.805,0,0,0,.569,1.375Z" transform="translate(-16.5 -32)"/><path class="h" d="M17.305,42.222a.8.8,0,0,0,.569-.236l1.611-1.611a.805.805,0,1,0-1.139-1.139l-1.611,1.611a.805.805,0,0,0,.569,1.375Z" transform="translate(-16.5 -33.361)"/><path class="h" d="M20.734,37.236a.842.842,0,0,0-.234.572.811.811,0,0,0,.805.805.807.807,0,1,0-.572-1.377Z" transform="translate(-17.278 -32.975)"/><path class="h" d="M22.736,35.791a.805.805,0,0,0,1.139,0l2.416-2.416a.805.805,0,1,0-1.139-1.139l-2.416,2.416A.8.8,0,0,0,22.736,35.791Z" transform="translate(-17.667 -32)"/><path class="h" d="M23.985,37.236l-7.249,7.249a.805.805,0,1,0,1.139,1.139l7.249-7.249a.805.805,0,0,0-1.139-1.139Z" transform="translate(-16.5 -32.972)"/><path class="h" d="M28.877,35.236a.817.817,0,1,0,.234.572A.843.843,0,0,0,28.877,35.236Z" transform="translate(-18.639 -32.586)"/></g><path class="i" d="M6.154,56.833H1.321L.583,52.407A.35.35,0,0,1,.928,52H6.959Z" transform="translate(-0.015 -10.114)"/><rect class="j" width="1.611" height="8.86" transform="translate(2.916 33.025)"/><path class="k" d="M7.1,35.034a3.553,3.553,0,0,0,.288-1.969,1.782,1.782,0,0,0-.367-.777,1.662,1.662,0,0,1-.331-1.378,2.123,2.123,0,0,0-.174-1.386,2.546,2.546,0,0,0-1.932-1.279,1.838,1.838,0,0,0-1.609.437l-.5.43A2.124,2.124,0,0,0,1.349,30.64a2.38,2.38,0,0,0,.062,1.1,1.842,1.842,0,0,1-.272,1.537,3.828,3.828,0,0,0-.355,3.551,2.144,2.144,0,0,0,.239.413,1.88,1.88,0,0,1,.312,1.566,2.582,2.582,0,0,0-.064.383,5.927,5.927,0,0,0,.187,1.746,2.851,2.851,0,0,0,.715,1.613,1.912,1.912,0,0,0,2.118-.038A4.192,4.192,0,0,0,6.464,40.1a3.013,3.013,0,0,0-.114-2.01,1.922,1.922,0,0,1,.119-1.877A5.351,5.351,0,0,0,7.1,35.034Z" transform="translate(0 -5.488)"/></g></svg>