<svg xmlns="http://www.w3.org/2000/svg" width="14.736" height="12.469" viewBox="0 0 14.736 12.469"><defs><style>.a{fill:#1b91ec;}</style></defs><g transform="translate(0 0)"><g transform="translate(0 0)"><path class="a" d="M365.446,366.586a1.133,1.133,0,1,0,.332-.8A1.093,1.093,0,0,0,365.446,366.586Z" transform="translate(-354.111 -355.251)"/><path class="a" d="M14.567,37.845a.545.545,0,0,0-.4-.168H3.533q-.009-.062-.04-.226t-.049-.261a1.562,1.562,0,0,0-.066-.235.706.706,0,0,0-.115-.217.565.565,0,0,0-.177-.137.54.54,0,0,0-.252-.057H.567a.545.545,0,0,0-.4.168.556.556,0,0,0,0,.8.545.545,0,0,0,.4.168H2.373l1.567,7.288q-.018.035-.182.336t-.261.527a.973.973,0,0,0-.1.35.574.574,0,0,0,.567.567h9.068a.567.567,0,0,0,0-1.134H4.888a1.71,1.71,0,0,0,.213-.567.957.957,0,0,0-.022-.195q-.022-.106-.053-.235t-.04-.19l9.246-1.08a.55.55,0,0,0,.363-.19.558.558,0,0,0,.142-.376V38.243A.545.545,0,0,0,14.567,37.845Z" transform="translate(0 -36.543)"/><path class="a" d="M109.632,366.586a1.133,1.133,0,1,0,.332-.8A1.091,1.091,0,0,0,109.632,366.586Z" transform="translate(-106.232 -355.251)"/></g></g></svg>