<svg xmlns="http://www.w3.org/2000/svg" xmlns:xlink="http://www.w3.org/1999/xlink" width="43.02" height="56.113" viewBox="0 0 43.02 56.113"><defs><style>.a{fill:url(#a);}</style><linearGradient id="a" x1="0.5" x2="0.5" y2="1" gradientUnits="objectBoundingBox"><stop offset="0" stop-color="#23b589"/><stop offset="1" stop-color="#039dbc"/></linearGradient></defs><g transform="translate(0)"><path class="a" d="M28.963,15.653a2.79,2.79,0,0,0,.36-.706,2.729,2.729,0,0,1,1.075.43,4.115,4.115,0,0,0,2.2.7,4.263,4.263,0,0,0,.739-.068,3.927,3.927,0,0,0,2.544-1.6A2.14,2.14,0,0,1,39,13.863a3.928,3.928,0,0,0,2.939.635l-.326-1.842a2.139,2.139,0,0,1-1.678-.412,3.98,3.98,0,0,0-5.483.967,2.142,2.142,0,0,1-1.437.962,1.853,1.853,0,0,1-.816-.02,3.719,3.719,0,0,0,1.5-.794,3.929,3.929,0,0,0,1.4-2.66,2.137,2.137,0,0,1,.764-1.55,2.107,2.107,0,0,1,1.659-.483,3.846,3.846,0,0,0,2.863-.92L39.175,6.313a2.234,2.234,0,0,1-1.659.482,3.982,3.982,0,0,0-4.266,3.579,2.139,2.139,0,0,1-2.42,2.032,4.156,4.156,0,0,0-1.722.23,2.806,2.806,0,0,0-1.086-1.061L32.2,3.223a.935.935,0,0,0-.842-1.354,2.413,2.413,0,0,1-1.751-.729,4.312,4.312,0,0,0-5.843,0,2.471,2.471,0,0,1-1.754.73,2.47,2.47,0,0,1-1.754-.73,4.318,4.318,0,0,0-5.847,0,2.421,2.421,0,0,1-1.755.729.935.935,0,0,0-.837,1.354L16,11.576a2.775,2.775,0,0,0-.941,4.078A19.655,19.655,0,0,0,.5,34.6V51.436a4.681,4.681,0,0,0,4.676,4.676H38.844a4.682,4.682,0,0,0,4.676-4.676V34.6A19.656,19.656,0,0,0,28.963,15.653ZM15.581,2.6a2.474,2.474,0,0,1,3.511,0,4.317,4.317,0,0,0,5.845,0,2.467,2.467,0,0,1,3.505,0,4.969,4.969,0,0,0,1.518.917l-3.852,7.7h-8.2l-3.851-7.7A5,5,0,0,0,15.581,2.6Zm1.753,12.362a.935.935,0,0,1,0-1.87h9.352a.935.935,0,0,1,0,1.87ZM41.65,51.436a2.806,2.806,0,0,1-2.806,2.806H5.176A2.805,2.805,0,0,1,2.37,51.436V34.6A17.788,17.788,0,0,1,20.14,16.833H23.88A17.789,17.789,0,0,1,41.65,34.6Zm0,0" transform="translate(-0.5 0.001)"/><path class="a" d="M130.84,269.559l11.223-11.223,1.322,1.322-11.223,11.223Zm0,0" transform="translate(-115.603 -228.136)"/><path class="a" d="M195.306,320a2.806,2.806,0,1,0,2.806,2.806A2.805,2.805,0,0,0,195.306,320Zm0,3.741a.935.935,0,1,1,.935-.935A.935.935,0,0,1,195.306,323.737Zm0,0" transform="translate(-170.055 -282.588)"/><path class="a" d="M131.306,261.607A2.806,2.806,0,1,0,128.5,258.8,2.806,2.806,0,0,0,131.306,261.607Zm0-3.741a.935.935,0,1,1-.935.935A.935.935,0,0,1,131.306,257.866Zm0,0" transform="translate(-113.536 -226.069)"/><path class="a" d="M85.593,200a13.093,13.093,0,1,0,13.093,13.093A13.093,13.093,0,0,0,85.593,200Zm0,24.316a11.223,11.223,0,1,1,11.223-11.223A11.223,11.223,0,0,1,85.593,224.312Zm0,0" transform="translate(-64.083 -176.616)"/></g></svg>