<svg xmlns="http://www.w3.org/2000/svg" width="18.772" height="18.772" viewBox="0 0 18.772 18.772"><g transform="translate(-0.003)"><path d="M17.742,1.033A3.39,3.39,0,0,0,15.255,0H3.523A3.391,3.391,0,0,0,1.036,1.033,3.391,3.391,0,0,0,0,3.52V15.252a3.391,3.391,0,0,0,1.033,2.487,3.39,3.39,0,0,0,2.487,1.033H15.255a3.526,3.526,0,0,0,3.52-3.52V3.52A3.391,3.391,0,0,0,17.742,1.033ZM15.377,14.249a2.207,2.207,0,0,1-1.155.978,3.878,3.878,0,0,1-1.6.416,3.025,3.025,0,0,1-.416-.03q-.22-.031-.373-.061a3.985,3.985,0,0,1-.4-.11q-.251-.079-.361-.122l-.4-.153q-.293-.11-.367-.134a10.954,10.954,0,0,1-3.917-2.646A10.954,10.954,0,0,1,3.742,8.469Q3.718,8.4,3.608,8.1t-.153-.4q-.043-.11-.122-.36a4.019,4.019,0,0,1-.11-.4q-.031-.153-.061-.373a3.029,3.029,0,0,1-.031-.416,3.879,3.879,0,0,1,.416-1.595A2.206,2.206,0,0,1,4.525,3.4a3.219,3.219,0,0,1,1.234-.269.568.568,0,0,1,.2.024.72.72,0,0,1,.2.22,4.963,4.963,0,0,1,.306.495q.165.3.324.581T7.092,5q.147.275.183.348t.159.232a1.874,1.874,0,0,1,.183.305.622.622,0,0,1,.061.257.727.727,0,0,1-.251.446,4.169,4.169,0,0,1-.55.483,4.77,4.77,0,0,0-.55.471.684.684,0,0,0-.251.409.6.6,0,0,0,.043.2,1.89,1.89,0,0,0,.079.19q.037.073.116.208t.1.171A9.336,9.336,0,0,0,7.965,10.81a9.328,9.328,0,0,0,2.084,1.546q.036.025.171.1c.09.053.159.091.208.116a1.859,1.859,0,0,0,.189.079.6.6,0,0,0,.2.043q.195,0,.538-.4t.7-.8q.354-.4.574-.4a.623.623,0,0,1,.257.061,1.879,1.879,0,0,1,.305.183c.114.082.192.134.232.159l.647.354q.648.342,1.082.605a1.414,1.414,0,0,1,.471.36.573.573,0,0,1,.024.2A3.212,3.212,0,0,1,15.377,14.249Z"/></g></svg>