<svg xmlns="http://www.w3.org/2000/svg" width="25.268" height="16.555" viewBox="0 0 25.268 16.555">
  <defs>
    <style>
      .cls-1 {
        fill: #f5f5f5;
      }

      .cls-2 {
        fill: #ff4b55;
      }

      .cls-3 {
        fill: #41479b;
      }
    </style>
  </defs>
  <g id="united-states" transform="translate(0 -88.275)">
    <path id="Path_13" data-name="Path 13" class="cls-1" d="M23.376,88.276H1.892A1.892,1.892,0,0,0,0,90.168v12.77a1.892,1.892,0,0,0,1.892,1.892H23.376a1.892,1.892,0,0,0,1.892-1.892V90.168A1.892,1.892,0,0,0,23.376,88.276Z" transform="translate(0 -0.001)"/>
    <g id="Group_8" data-name="Group 8" transform="translate(0 88.275)">
      <path id="Path_14" data-name="Path 14" class="cls-2" d="M2.109,89.549h25.06a1.893,1.893,0,0,0-1.788-1.273H3.9A1.893,1.893,0,0,0,2.109,89.549Z" transform="translate(-2.005 -88.276)"/>
      <rect id="Rectangle_3" data-name="Rectangle 3" class="cls-2" width="25.268" height="1.273" transform="translate(0 5.094)"/>
      <rect id="Rectangle_4" data-name="Rectangle 4" class="cls-2" width="25.268" height="1.273" transform="translate(0 2.547)"/>
      <path id="Path_15" data-name="Path 15" class="cls-2" d="M0,243.936a.436.436,0,0,0,.436.436H25.268V243.1H0Z" transform="translate(0 -235.457)"/>
      <rect id="Rectangle_5" data-name="Rectangle 5" class="cls-2" width="25.268" height="1.273" transform="translate(0 12.735)"/>
      <path id="Path_16" data-name="Path 16" class="cls-2" d="M27.169,397.92H2.109A1.893,1.893,0,0,0,3.9,399.193H25.381A1.893,1.893,0,0,0,27.169,397.92Z" transform="translate(-2.005 -382.639)"/>
      <rect id="Rectangle_6" data-name="Rectangle 6" class="cls-2" width="25.268" height="1.273" transform="translate(0 10.188)"/>
    </g>
    <path id="Path_17" data-name="Path 17" class="cls-3" d="M.436,97.189H11.327a.436.436,0,0,0,.436-.436V88.711a.436.436,0,0,0-.436-.436H1.892A1.892,1.892,0,0,0,0,90.167v6.586A.436.436,0,0,0,.436,97.189Z"/>
    <g id="Group_9" data-name="Group 9" transform="translate(0.703 89.247)">
      <path id="Path_18" data-name="Path 18" class="cls-1" d="M14.773,108l.1.289.3,0a.041.041,0,0,1,.024.074l-.245.181.092.291a.041.041,0,0,1-.063.046l-.248-.177-.248.177a.041.041,0,0,1-.063-.046l.092-.291-.245-.181a.041.041,0,0,1,.024-.074l.3,0,.1-.289A.041.041,0,0,1,14.773,108Z" transform="translate(-14.253 -107.968)"/>
      <path id="Path_19" data-name="Path 19" class="cls-1" d="M14.773,138.651l.1.289.3,0a.041.041,0,0,1,.024.074l-.245.181.092.291a.041.041,0,0,1-.063.046l-.248-.177-.248.177a.041.041,0,0,1-.063-.046l.092-.291-.245-.181a.041.041,0,0,1,.024-.074l.3,0,.1-.289A.041.041,0,0,1,14.773,138.651Z" transform="translate(-14.253 -137.11)"/>
      <path id="Path_20" data-name="Path 20" class="cls-1" d="M14.773,169.3l.1.289.3,0a.041.041,0,0,1,.024.074l-.245.181.092.291a.041.041,0,0,1-.063.046l-.248-.177-.248.177a.041.041,0,0,1-.063-.046l.092-.291-.245-.181a.041.041,0,0,1,.024-.074l.3,0,.1-.289A.041.041,0,0,1,14.773,169.3Z" transform="translate(-14.253 -166.251)"/>
      <path id="Path_21" data-name="Path 21" class="cls-1" d="M14.773,199.959l.1.289.3,0a.041.041,0,0,1,.024.074l-.245.181.092.291a.041.041,0,0,1-.063.046l-.248-.177-.248.177a.041.041,0,0,1-.063-.046l.092-.291-.245-.181a.041.041,0,0,1,.024-.074l.3,0,.1-.289A.041.041,0,0,1,14.773,199.959Z" transform="translate(-14.253 -195.392)"/>
      <path id="Path_22" data-name="Path 22" class="cls-1" d="M14.773,230.614l.1.289.3,0a.041.041,0,0,1,.024.074l-.245.181.092.291a.041.041,0,0,1-.063.046l-.248-.177-.248.177a.041.041,0,0,1-.063-.046l.092-.291-.245-.181a.041.041,0,0,1,.024-.074l.3,0,.1-.289A.041.041,0,0,1,14.773,230.614Z" transform="translate(-14.253 -224.534)"/>
      <path id="Path_23" data-name="Path 23" class="cls-1" d="M38.566,123.026l.1.289.3,0a.041.041,0,0,1,.024.074l-.245.181.092.291a.041.041,0,0,1-.063.046l-.248-.177-.248.177a.041.041,0,0,1-.063-.046l.092-.291-.245-.181a.041.041,0,0,1,.024-.074l.3,0,.1-.289A.041.041,0,0,1,38.566,123.026Z" transform="translate(-36.871 -122.256)"/>
      <path id="Path_24" data-name="Path 24" class="cls-1" d="M38.566,153.68l.1.289.3,0a.041.041,0,0,1,.024.074l-.245.181.092.291a.041.041,0,0,1-.063.046l-.248-.177-.248.177a.041.041,0,0,1-.063-.046l.092-.291-.245-.181a.041.041,0,0,1,.024-.074l.3,0,.1-.289A.041.041,0,0,1,38.566,153.68Z" transform="translate(-36.871 -151.397)"/>
      <path id="Path_25" data-name="Path 25" class="cls-1" d="M38.566,184.334l.1.289.3,0a.041.041,0,0,1,.024.074l-.245.181.092.291a.041.041,0,0,1-.063.046l-.248-.177-.248.177a.041.041,0,0,1-.063-.046l.092-.291-.245-.181a.041.041,0,0,1,.024-.074l.3,0,.1-.289A.041.041,0,0,1,38.566,184.334Z" transform="translate(-36.871 -180.538)"/>
      <path id="Path_26" data-name="Path 26" class="cls-1" d="M38.566,214.989l.1.289.3,0a.041.041,0,0,1,.024.074l-.245.181.092.291a.041.041,0,0,1-.063.046l-.248-.177-.248.177a.041.041,0,0,1-.063-.046l.092-.291-.245-.181a.041.041,0,0,1,.024-.074l.3,0,.1-.289A.041.041,0,0,1,38.566,214.989Z" transform="translate(-36.871 -209.68)"/>
      <path id="Path_27" data-name="Path 27" class="cls-1" d="M62.359,108l.1.289.3,0a.041.041,0,0,1,.024.074l-.245.181.092.291a.041.041,0,0,1-.063.046l-.248-.177-.248.177a.041.041,0,0,1-.063-.046l.092-.291-.245-.181a.041.041,0,0,1,.024-.074l.3,0,.1-.289A.041.041,0,0,1,62.359,108Z" transform="translate(-59.49 -107.968)"/>
      <path id="Path_28" data-name="Path 28" class="cls-1" d="M62.359,138.651l.1.289.3,0a.041.041,0,0,1,.024.074l-.245.181.092.291a.041.041,0,0,1-.063.046l-.248-.177-.248.177a.041.041,0,0,1-.063-.046l.092-.291-.245-.181a.041.041,0,0,1,.024-.074l.3,0,.1-.289A.041.041,0,0,1,62.359,138.651Z" transform="translate(-59.49 -137.11)"/>
      <path id="Path_29" data-name="Path 29" class="cls-1" d="M62.359,169.3l.1.289.3,0a.041.041,0,0,1,.024.074l-.245.181.092.291a.041.041,0,0,1-.063.046l-.248-.177-.248.177a.041.041,0,0,1-.063-.046l.092-.291-.245-.181a.041.041,0,0,1,.024-.074l.3,0,.1-.289A.041.041,0,0,1,62.359,169.3Z" transform="translate(-59.49 -166.251)"/>
      <path id="Path_30" data-name="Path 30" class="cls-1" d="M62.359,199.959l.1.289.3,0a.041.041,0,0,1,.024.074l-.245.181.092.291a.041.041,0,0,1-.063.046l-.248-.177-.248.177a.041.041,0,0,1-.063-.046l.092-.291-.245-.181a.041.041,0,0,1,.024-.074l.3,0,.1-.289A.041.041,0,0,1,62.359,199.959Z" transform="translate(-59.49 -195.392)"/>
      <path id="Path_31" data-name="Path 31" class="cls-1" d="M62.359,230.614l.1.289.3,0a.041.041,0,0,1,.024.074l-.245.181.092.291a.041.041,0,0,1-.063.046l-.248-.177-.248.177a.041.041,0,0,1-.063-.046l.092-.291-.245-.181a.041.041,0,0,1,.024-.074l.3,0,.1-.289A.041.041,0,0,1,62.359,230.614Z" transform="translate(-59.49 -224.534)"/>
      <path id="Path_32" data-name="Path 32" class="cls-1" d="M86.153,123.026l.1.289.3,0a.041.041,0,0,1,.024.074l-.245.181.092.291a.041.041,0,0,1-.063.046l-.248-.177-.248.177a.041.041,0,0,1-.063-.046l.092-.291-.245-.181a.041.041,0,0,1,.024-.074l.3,0,.1-.289A.041.041,0,0,1,86.153,123.026Z" transform="translate(-82.11 -122.256)"/>
      <path id="Path_33" data-name="Path 33" class="cls-1" d="M86.153,153.68l.1.289.3,0a.041.041,0,0,1,.024.074l-.245.181.092.291a.041.041,0,0,1-.063.046l-.248-.177-.248.177a.041.041,0,0,1-.063-.046l.092-.291-.245-.181a.041.041,0,0,1,.024-.074l.3,0,.1-.289A.041.041,0,0,1,86.153,153.68Z" transform="translate(-82.11 -151.397)"/>
      <path id="Path_34" data-name="Path 34" class="cls-1" d="M86.153,184.334l.1.289.3,0a.041.041,0,0,1,.024.074l-.245.181.092.291a.041.041,0,0,1-.063.046l-.248-.177-.248.177a.041.041,0,0,1-.063-.046l.092-.291-.245-.181a.041.041,0,0,1,.024-.074l.3,0,.1-.289A.041.041,0,0,1,86.153,184.334Z" transform="translate(-82.11 -180.538)"/>
      <path id="Path_35" data-name="Path 35" class="cls-1" d="M86.153,214.989l.1.289.3,0a.041.041,0,0,1,.024.074l-.245.181.092.291a.041.041,0,0,1-.063.046l-.248-.177-.248.177a.041.041,0,0,1-.063-.046l.092-.291-.245-.181a.041.041,0,0,1,.024-.074l.3,0,.1-.289A.041.041,0,0,1,86.153,214.989Z" transform="translate(-82.11 -209.68)"/>
      <path id="Path_36" data-name="Path 36" class="cls-1" d="M109.945,108l.1.289.3,0a.041.041,0,0,1,.024.074l-.245.181.092.291a.041.041,0,0,1-.063.046l-.248-.177-.248.177a.041.041,0,0,1-.063-.046l.092-.291-.245-.181a.041.041,0,0,1,.024-.074l.3,0,.1-.289A.041.041,0,0,1,109.945,108Z" transform="translate(-104.728 -107.968)"/>
      <path id="Path_37" data-name="Path 37" class="cls-1" d="M109.945,138.651l.1.289.3,0a.041.041,0,0,1,.024.074l-.245.181.092.291a.041.041,0,0,1-.063.046l-.248-.177-.248.177a.041.041,0,0,1-.063-.046l.092-.291-.245-.181a.041.041,0,0,1,.024-.074l.3,0,.1-.289A.041.041,0,0,1,109.945,138.651Z" transform="translate(-104.728 -137.11)"/>
      <path id="Path_38" data-name="Path 38" class="cls-1" d="M109.945,169.3l.1.289.3,0a.041.041,0,0,1,.024.074l-.245.181.092.291a.041.041,0,0,1-.063.046l-.248-.177-.248.177a.041.041,0,0,1-.063-.046l.092-.291-.245-.181a.041.041,0,0,1,.024-.074l.3,0,.1-.289A.041.041,0,0,1,109.945,169.3Z" transform="translate(-104.728 -166.251)"/>
      <path id="Path_39" data-name="Path 39" class="cls-1" d="M109.945,199.959l.1.289.3,0a.041.041,0,0,1,.024.074l-.245.181.092.291a.041.041,0,0,1-.063.046l-.248-.177-.248.177a.041.041,0,0,1-.063-.046l.092-.291-.245-.181a.041.041,0,0,1,.024-.074l.3,0,.1-.289A.041.041,0,0,1,109.945,199.959Z" transform="translate(-104.728 -195.392)"/>
      <path id="Path_40" data-name="Path 40" class="cls-1" d="M109.945,230.614l.1.289.3,0a.041.041,0,0,1,.024.074l-.245.181.092.291a.041.041,0,0,1-.063.046l-.248-.177-.248.177a.041.041,0,0,1-.063-.046l.092-.291-.245-.181a.041.041,0,0,1,.024-.074l.3,0,.1-.289A.041.041,0,0,1,109.945,230.614Z" transform="translate(-104.728 -224.534)"/>
      <path id="Path_41" data-name="Path 41" class="cls-1" d="M133.739,123.026l.1.289.3,0a.041.041,0,0,1,.024.074l-.245.181.092.291a.041.041,0,0,1-.063.046l-.248-.177-.248.177a.041.041,0,0,1-.063-.046l.092-.291-.245-.181a.041.041,0,0,1,.024-.074l.3,0,.1-.289A.041.041,0,0,1,133.739,123.026Z" transform="translate(-127.348 -122.256)"/>
      <path id="Path_42" data-name="Path 42" class="cls-1" d="M133.739,153.68l.1.289.3,0a.041.041,0,0,1,.024.074l-.245.181.092.291a.041.041,0,0,1-.063.046l-.248-.177-.248.177a.041.041,0,0,1-.063-.046l.092-.291-.245-.181a.041.041,0,0,1,.024-.074l.3,0,.1-.289A.041.041,0,0,1,133.739,153.68Z" transform="translate(-127.348 -151.397)"/>
      <path id="Path_43" data-name="Path 43" class="cls-1" d="M133.739,184.334l.1.289.3,0a.041.041,0,0,1,.024.074l-.245.181.092.291a.041.041,0,0,1-.063.046l-.248-.177-.248.177a.041.041,0,0,1-.063-.046l.092-.291-.245-.181a.041.041,0,0,1,.024-.074l.3,0,.1-.289A.041.041,0,0,1,133.739,184.334Z" transform="translate(-127.348 -180.538)"/>
      <path id="Path_44" data-name="Path 44" class="cls-1" d="M133.739,214.989l.1.289.3,0a.041.041,0,0,1,.024.074l-.245.181.092.291a.041.041,0,0,1-.063.046l-.248-.177-.248.177a.041.041,0,0,1-.063-.046l.092-.291-.245-.181a.041.041,0,0,1,.024-.074l.3,0,.1-.289A.041.041,0,0,1,133.739,214.989Z" transform="translate(-127.348 -209.68)"/>
      <path id="Path_45" data-name="Path 45" class="cls-1" d="M157.533,108l.1.289.3,0a.041.041,0,0,1,.024.074l-.245.181.092.291a.041.041,0,0,1-.063.046l-.248-.177-.248.177a.041.041,0,0,1-.063-.046l.092-.291-.245-.181a.041.041,0,0,1,.024-.074l.3,0,.1-.289A.041.041,0,0,1,157.533,108Z" transform="translate(-149.967 -107.968)"/>
      <path id="Path_46" data-name="Path 46" class="cls-1" d="M157.533,138.651l.1.289.3,0a.041.041,0,0,1,.024.074l-.245.181.092.291a.041.041,0,0,1-.063.046l-.248-.177-.248.177a.041.041,0,0,1-.063-.046l.092-.291-.245-.181a.041.041,0,0,1,.024-.074l.3,0,.1-.289A.041.041,0,0,1,157.533,138.651Z" transform="translate(-149.967 -137.11)"/>
      <path id="Path_47" data-name="Path 47" class="cls-1" d="M157.533,169.3l.1.289.3,0a.041.041,0,0,1,.024.074l-.245.181.092.291a.041.041,0,0,1-.063.046l-.248-.177-.248.177a.041.041,0,0,1-.063-.046l.092-.291-.245-.181a.041.041,0,0,1,.024-.074l.3,0,.1-.289A.041.041,0,0,1,157.533,169.3Z" transform="translate(-149.967 -166.251)"/>
      <path id="Path_48" data-name="Path 48" class="cls-1" d="M157.533,199.959l.1.289.3,0a.041.041,0,0,1,.024.074l-.245.181.092.291a.041.041,0,0,1-.063.046l-.248-.177-.248.177a.041.041,0,0,1-.063-.046l.092-.291-.245-.181a.041.041,0,0,1,.024-.074l.3,0,.1-.289A.041.041,0,0,1,157.533,199.959Z" transform="translate(-149.967 -195.392)"/>
      <path id="Path_49" data-name="Path 49" class="cls-1" d="M157.533,230.614l.1.289.3,0a.041.041,0,0,1,.024.074l-.245.181.092.291a.041.041,0,0,1-.063.046l-.248-.177-.248.177a.041.041,0,0,1-.063-.046l.092-.291-.245-.181a.041.041,0,0,1,.024-.074l.3,0,.1-.289A.041.041,0,0,1,157.533,230.614Z" transform="translate(-149.967 -224.534)"/>
      <path id="Path_50" data-name="Path 50" class="cls-1" d="M181.326,123.026l.1.289.3,0a.041.041,0,0,1,.024.074l-.245.181.092.291a.041.041,0,0,1-.063.046l-.248-.177-.248.177a.041.041,0,0,1-.063-.046l.092-.291-.245-.181a.041.041,0,0,1,.024-.074l.3,0,.1-.289A.041.041,0,0,1,181.326,123.026Z" transform="translate(-172.586 -122.256)"/>
      <path id="Path_51" data-name="Path 51" class="cls-1" d="M181.326,153.68l.1.289.3,0a.041.041,0,0,1,.024.074l-.245.181.092.291a.041.041,0,0,1-.063.046l-.248-.177-.248.177a.041.041,0,0,1-.063-.046l.092-.291-.245-.181a.041.041,0,0,1,.024-.074l.3,0,.1-.289A.041.041,0,0,1,181.326,153.68Z" transform="translate(-172.586 -151.397)"/>
      <path id="Path_52" data-name="Path 52" class="cls-1" d="M181.326,184.334l.1.289.3,0a.041.041,0,0,1,.024.074l-.245.181.092.291a.041.041,0,0,1-.063.046l-.248-.177-.248.177a.041.041,0,0,1-.063-.046l.092-.291-.245-.181a.041.041,0,0,1,.024-.074l.3,0,.1-.289A.041.041,0,0,1,181.326,184.334Z" transform="translate(-172.586 -180.538)"/>
      <path id="Path_53" data-name="Path 53" class="cls-1" d="M181.326,214.989l.1.289.3,0a.041.041,0,0,1,.024.074l-.245.181.092.291a.041.041,0,0,1-.063.046l-.248-.177-.248.177a.041.041,0,0,1-.063-.046l.092-.291-.245-.181a.041.041,0,0,1,.024-.074l.3,0,.1-.289A.041.041,0,0,1,181.326,214.989Z" transform="translate(-172.586 -209.68)"/>
      <path id="Path_54" data-name="Path 54" class="cls-1" d="M205.12,108l.1.289.3,0a.041.041,0,0,1,.024.074l-.245.181.092.291a.041.041,0,0,1-.063.046l-.248-.177-.248.177a.041.041,0,0,1-.063-.046l.092-.291-.245-.181a.041.041,0,0,1,.024-.074l.3,0,.1-.289A.041.041,0,0,1,205.12,108Z" transform="translate(-195.206 -107.968)"/>
      <path id="Path_55" data-name="Path 55" class="cls-1" d="M205.12,138.651l.1.289.3,0a.041.041,0,0,1,.024.074l-.245.181.092.291a.041.041,0,0,1-.063.046l-.248-.177-.248.177a.041.041,0,0,1-.063-.046l.092-.291-.245-.181a.041.041,0,0,1,.024-.074l.3,0,.1-.289A.041.041,0,0,1,205.12,138.651Z" transform="translate(-195.206 -137.11)"/>
      <path id="Path_56" data-name="Path 56" class="cls-1" d="M205.12,169.3l.1.289.3,0a.041.041,0,0,1,.024.074l-.245.181.092.291a.041.041,0,0,1-.063.046l-.248-.177-.248.177a.041.041,0,0,1-.063-.046l.092-.291-.245-.181a.041.041,0,0,1,.024-.074l.3,0,.1-.289A.041.041,0,0,1,205.12,169.3Z" transform="translate(-195.206 -166.251)"/>
      <path id="Path_57" data-name="Path 57" class="cls-1" d="M205.12,199.959l.1.289.3,0a.041.041,0,0,1,.024.074l-.245.181.092.291a.041.041,0,0,1-.063.046l-.248-.177-.248.177a.041.041,0,0,1-.063-.046l.092-.291-.245-.181a.041.041,0,0,1,.024-.074l.3,0,.1-.289A.041.041,0,0,1,205.12,199.959Z" transform="translate(-195.206 -195.392)"/>
      <path id="Path_58" data-name="Path 58" class="cls-1" d="M205.12,230.614l.1.289.3,0a.041.041,0,0,1,.024.074l-.245.181.092.291a.041.041,0,0,1-.063.046l-.248-.177-.248.177a.041.041,0,0,1-.063-.046l.092-.291-.245-.181a.041.041,0,0,1,.024-.074l.3,0,.1-.289A.041.041,0,0,1,205.12,230.614Z" transform="translate(-195.206 -224.534)"/>
    </g>
  </g>
</svg>
