<svg xmlns="http://www.w3.org/2000/svg" xmlns:xlink="http://www.w3.org/1999/xlink" width="64.07" height="37.634" viewBox="0 0 64.07 37.634"><defs><style>.a{fill:url(#a);}</style><linearGradient id="a" x1="0.5" x2="0.5" y2="1" gradientUnits="objectBoundingBox"><stop offset="0" stop-color="#23b589"/><stop offset="1" stop-color="#039dbc"/></linearGradient></defs><g transform="translate(0 0)"><path class="a" d="M62.813,11.037A1.257,1.257,0,0,0,64.07,9.78V1.257A1.257,1.257,0,0,0,62.813,0H1.257A1.257,1.257,0,0,0,0,1.257V9.78a1.257,1.257,0,0,0,1.257,1.257,7.78,7.78,0,0,1,0,15.56A1.257,1.257,0,0,0,0,27.854v8.523a1.257,1.257,0,0,0,1.257,1.257H12.431a1.257,1.257,0,0,0,0-2.513H2.513V29.034a10.294,10.294,0,0,0,0-20.434V2.513H45.677V5.026a1.257,1.257,0,0,0,2.513,0V2.513H61.556V8.6a10.294,10.294,0,0,0,0,20.434V35.12H48.191V32.607a1.257,1.257,0,0,0-2.513,0V35.12H22.75a1.257,1.257,0,1,0,0,2.513H62.813a1.257,1.257,0,0,0,1.257-1.257V27.854A1.257,1.257,0,0,0,62.813,26.6a7.78,7.78,0,1,1,0-15.56Zm0,0" transform="translate(0 0)"/><path class="a" d="M366.277,115.3a1.257,1.257,0,0,0,1.257-1.257V104.85a1.257,1.257,0,1,0-2.513,0v9.194A1.257,1.257,0,0,0,366.277,115.3Zm0,0" transform="translate(-319.343 -90.63)"/><path class="a" d="M154.98,77.27a4.939,4.939,0,1,0-3.488,1.442A4.9,4.9,0,0,0,154.98,77.27Zm-5.908-3.488a2.42,2.42,0,1,1,.709,1.711A2.4,2.4,0,0,1,149.072,73.782Zm0,0" transform="translate(-128.218 -60.235)"/><path class="a" d="M238.142,159.346a4.933,4.933,0,1,0,6.977,0A4.938,4.938,0,0,0,238.142,159.346Zm5.2,1.777a2.422,2.422,0,1,1-1.711-.708A2.423,2.423,0,0,1,243.341,161.123Zm0,0" transform="translate(-207.079 -138.144)"/><path class="a" d="M170.744,106.078l13.09-13.09a1.257,1.257,0,1,0-1.777-1.777l-13.09,13.09a1.257,1.257,0,1,0,1.777,1.777Zm0,0" transform="translate(-147.504 -79.476)"/><path class="a" d="M131.616,280.555a1.256,1.256,0,1,0,1.234,1.021A1.268,1.268,0,0,0,131.616,280.555Zm0,0" transform="translate(-114.048 -245.447)"/></g></svg>